<svg width="86" height="72" viewBox="0 0 86 72" fill="none" xmlns="http://www.w3.org/2000/svg">
<path d="M82.215 42.71C83.35 40.555 84 38.105 84 35.5C84 28.879 79.841 23.243 73.999 21.022C73.999 21.015 74 21.008 74 21C74 9.402 64.598 0 53 0C43.216 0 35.019 6.701 32.687 15.757C31.211 15.272 29.638 15 28 15C20.308 15 13.977 20.793 13.11 28.252C7.906 29.353 4 33.969 4 39.5C4 45.851 9.149 51 15.5 51C15.677 51 15.852 50.988 16.026 50.978C16.022 51.153 16 51.324 16 51.5C16 62.822 25.178 72 36.5 72C42.937 72 48.675 69.028 52.434 64.386C54.612 66.611 57.64 68 61 68C65.65 68 69.674 65.35 71.666 61.482C72.718 61.817 73.837 62 75 62C81.075 62 86 57.075 86 51C86 47.689 84.53 44.727 82.215 42.71Z" fill="#7DE38D"/>
<path d="M71.5 46.5V47H74.5V46.5C74.5 46.5 78.742 46.5 80 46.5C82.485 46.5 84.5 44.485 84.5 42C84.5 39.667 82.718 37.771 80.445 37.545C80.467 37.364 80.5 37.187 80.5 37C80.5 34.515 78.485 32.5 76 32.5C74.562 32.5 73.297 33.186 72.473 34.236C72.333 31.6 70.171 29.5 67.5 29.5C64.739 29.5 62.5 31.739 62.5 34.5C62.5 34.946 62.577 35.37 62.687 35.782C62.045 35.005 61.086 34.5 60 34.5C58.219 34.5 56.766 35.835 56.545 37.555C56.364 37.533 56.187 37.5 56 37.5C53.515 37.5 51.5 39.515 51.5 42C51.5 44.485 53.515 46.5 56 46.5C58.485 46.5 65.5 46.5 65.5 46.5H71.5Z" fill="#FDFCEF"/>
<path d="M67.5 29C64.467 29 62 31.467 62 34.5C62 34.516 62 34.531 62 34.547C61.398 34.192 60.71 34 60 34C58.169 34 56.589 35.261 56.142 37.005C56.095 37.002 56.048 37 56 37C53.243 37 51 39.243 51 42C51 44.757 53.243 47 56 47H71.5C71.776 47 72 46.776 72 46.5C72 46.224 71.776 46 71.5 46H56C53.794 46 52 44.206 52 42C52 39.794 53.794 38 56 38C56.117 38 56.23 38.017 56.343 38.032L56.484 38.051C56.505 38.054 56.525 38.055 56.546 38.055C56.792 38.055 57.008 37.87 57.041 37.618C57.232 36.125 58.504 35 60 35C60.885 35 61.723 35.401 62.301 36.1C62.399 36.218 62.542 36.282 62.687 36.282C62.765 36.282 62.843 36.264 62.915 36.226C63.124 36.119 63.229 35.88 63.169 35.653C63.054 35.218 63 34.852 63 34.5C63 32.019 65.019 30 67.5 30C69.881 30 71.847 31.872 71.974 34.263C71.985 34.471 72.124 34.65 72.323 34.713C72.373 34.729 72.424 34.737 72.475 34.737C72.625 34.737 72.771 34.668 72.867 34.545C73.638 33.563 74.779 33 76 33C78.206 33 80 34.794 80 37C80 37.117 79.983 37.23 79.968 37.343L79.949 37.484C79.933 37.618 79.971 37.752 80.055 37.857C80.139 37.962 80.262 38.029 80.395 38.042C82.451 38.247 84 39.949 84 42C84 44.206 82.206 46 80 46H74.5C74.224 46 74 46.224 74 46.5C74 46.776 74.224 47 74.5 47H80C82.757 47 85 44.757 85 42C85 39.603 83.311 37.587 80.997 37.123C80.999 37.082 81 37.041 81 37C81 34.243 78.757 32 76 32C74.824 32 73.707 32.416 72.817 33.164C72.219 30.76 70.055 29 67.5 29Z" fill="#472B29"/>
<path d="M66 36C64.597 36 63.391 36.999 63.087 38.341C62.72 38.119 62.301 38 61.875 38C60.673 38 59.677 38.897 59.522 40.068C59.319 40.022 59.126 40 58.937 40C57.408 40 56.126 41.2 56.019 42.732C56.01 42.87 56.114 42.99 56.251 43C56.257 43 56.263 43 56.269 43C56.399 43 56.509 42.899 56.518 42.768C56.607 41.497 57.669 40.5 58.937 40.5C59.166 40.5 59.407 40.542 59.675 40.627C59.697 40.634 59.72 40.637 59.742 40.637C59.797 40.637 59.852 40.617 59.898 40.583C59.962 40.537 60 40.455 60 40.375C60 39.341 60.841 38.5 61.875 38.5C62.322 38.5 62.76 38.668 63.106 38.973C63.153 39.014 63.212 39.036 63.271 39.036C63.303 39.036 63.334 39.03 63.364 39.017C63.452 38.982 63.512 38.9 63.519 38.805C63.623 37.512 64.712 36.5 66 36.5C66.208 36.5 66.425 36.534 66.682 36.607C66.705 36.614 66.729 36.617 66.752 36.617C66.861 36.617 66.959 36.544 66.991 36.435C67.029 36.302 66.952 36.164 66.819 36.126C66.517 36.04 66.256 36 66 36ZM79.883 37.5C78.557 37.5 77.375 38.397 77.009 39.682C76.971 39.815 77.048 39.953 77.181 39.991C77.205 39.997 77.228 40 77.25 40C77.359 40 77.459 39.928 77.49 39.818C77.795 38.748 78.779 38 79.883 38C80 38 80.113 38.014 80.225 38.029C80.237 38.031 80.248 38.032 80.26 38.032C80.381 38.032 80.489 37.94 80.506 37.815C80.525 37.678 80.429 37.552 80.292 37.534C80.158 37.516 80.022 37.5 79.883 37.5Z" fill="#472B29"/>
<path d="M10.5 37H0.5C0.224 37 0 36.776 0 36.5C0 36.224 0.224 36 0.5 36H10.5C10.776 36 11 36.224 11 36.5C11 36.776 10.777 37 10.5 37ZM13.5 37H12.5C12.224 37 12 36.776 12 36.5C12 36.224 12.224 36 12.5 36H13.5C13.776 36 14 36.224 14 36.5C14 36.776 13.777 37 13.5 37ZM18.491 39H9.5C9.224 39 9 38.776 9 38.5C9 38.224 9.224 38 9.5 38H18.491C18.767 38 18.991 38.224 18.991 38.5C18.991 38.776 18.767 39 18.491 39ZM7.5 39H6.5C6.224 39 6 38.776 6 38.5C6 38.224 6.224 38 6.5 38H7.5C7.776 38 8 38.224 8 38.5C8 38.776 7.777 39 7.5 39ZM4.5 39H2.5C2.224 39 2 38.776 2 38.5C2 38.224 2.224 38 2.5 38H4.5C4.776 38 5 38.224 5 38.5C5 38.776 4.777 39 4.5 39ZM10.5 41H8.5C8.224 41 8 40.776 8 40.5C8 40.224 8.224 40 8.5 40H10.5C10.776 40 11 40.224 11 40.5C11 40.776 10.776 41 10.5 41ZM13.5 32C13.323 32 12.677 32 12.5 32C12.224 32 12 32.224 12 32.5C12 32.776 12.224 33 12.5 33C12.677 33 13.323 33 13.5 33C13.776 33 14 32.776 14 32.5C14 32.224 13.776 32 13.5 32ZM13.5 34C13.323 34 8.677 34 8.5 34C8.224 34 8 34.224 8 34.5C8 34.776 8.224 35 8.5 35C8.677 35 13.323 35 13.5 35C13.776 35 14 34.776 14 34.5C14 34.224 13.776 34 13.5 34ZM18.5 36C18.323 36 15.677 36 15.5 36C15.224 36 15 36.224 15 36.5C15 36.776 15.224 37 15.5 37C15.677 37 18.323 37 18.5 37C18.776 37 19 36.776 19 36.5C19 36.224 18.776 36 18.5 36Z" fill="white"/>
<path d="M67.5 10H57.5C57.224 10 57 9.776 57 9.5C57 9.224 57.224 9 57.5 9H67.5C67.776 9 68 9.224 68 9.5C68 9.776 67.776 10 67.5 10ZM71.5 10H69.5C69.224 10 69 9.776 69 9.5C69 9.224 69.224 9 69.5 9H71.5C71.776 9 72 9.224 72 9.5C72 9.776 71.776 10 71.5 10ZM76.5 12H66.5C66.224 12 66 11.776 66 11.5C66 11.224 66.224 11 66.5 11H76.5C76.776 11 77 11.224 77 11.5C77 11.776 76.777 12 76.5 12ZM64.5 12H63.5C63.224 12 63 11.776 63 11.5C63 11.224 63.224 11 63.5 11H64.5C64.776 11 65 11.224 65 11.5C65 11.776 64.776 12 64.5 12ZM61.47 12H59.5C59.224 12 59 11.776 59 11.5C59 11.224 59.224 11 59.5 11H61.47C61.746 11 61.97 11.224 61.97 11.5C61.97 11.776 61.746 12 61.47 12ZM70.5 8H65.5C65.224 8 65 7.776 65 7.5C65 7.224 65.224 7 65.5 7H70.5C70.776 7 71 7.224 71 7.5C71 7.776 70.777 8 70.5 8ZM67.5 14H65.5C65.224 14 65 13.776 65 13.5C65 13.224 65.224 13 65.5 13H67.5C67.776 13 68 13.224 68 13.5C68 13.776 67.776 14 67.5 14Z" fill="white"/>
<path d="M47 13C34.2975 13 24 23.2975 24 36C24 48.7025 34.2975 59 47 59C59.7025 59 70 48.7025 70 36C70 23.2975 59.7025 13 47 13Z" fill="#FDFCEF"/>
<path d="M46.999 13.4C59.461 13.4 69.6 23.538 69.6 35.999C69.6 48.461 59.461 58.6 46.999 58.6C34.538 58.6 24.4 48.462 24.4 36C24.4 23.538 34.538 13.4 46.999 13.4ZM46.999 12C33.765 12 23 22.766 23 36C23 49.234 33.765 60 46.999 60C60.233 60 71 49.233 71 35.999C71 22.765 60.234 12 46.999 12Z" fill="#472B29"/>
<path d="M47 16.375C36.1614 16.375 27.375 25.1614 27.375 36C27.375 46.8386 36.1614 55.625 47 55.625C57.8386 55.625 66.625 46.8386 66.625 36C66.625 25.1614 57.8386 16.375 47 16.375Z" fill="#93BC39"/>
<path d="M47 20C57.227 20 65.618 27.825 66.533 37.813C66.588 37.215 66.625 36.612 66.625 36C66.625 25.161 57.839 16.375 47 16.375C36.161 16.375 27.375 25.161 27.375 36C27.375 36.612 27.412 37.215 27.467 37.813C28.382 27.825 36.773 20 47 20Z" fill="#B7CC6B"/>
<path d="M47 16.375C36.1614 16.375 27.375 25.1614 27.375 36C27.375 46.8386 36.1614 55.625 47 55.625C57.8386 55.625 66.625 46.8386 66.625 36C66.625 25.1614 57.8386 16.375 47 16.375Z" stroke="#472B29" stroke-width="0.75" stroke-miterlimit="10"/>
<path d="M31.5 59.5C31.5 59.5 33.067 59.5 35 59.5C36.933 59.5 38.5 57.933 38.5 56C38.5 54.219 37.165 52.766 35.445 52.545C35.473 52.366 35.5 52.187 35.5 52C35.5 50.067 33.933 48.5 32 48.5C30.968 48.5 30.05 48.955 29.41 49.665C29.026 47.857 27.423 46.5 25.5 46.5C23.291 46.5 21.5 48.291 21.5 50.5C21.5 50.691 21.53 50.874 21.556 51.058C21.128 50.714 20.592 50.5 20 50.5C18.772 50.5 17.755 51.387 17.545 52.555C17.366 52.527 17.187 52.5 17 52.5C15.067 52.5 13.5 54.067 13.5 56C13.5 57.933 15.067 59.5 17 59.5C18.933 59.5 24.5 59.5 24.5 59.5V60H31.5V59.5Z" fill="#FDFCEF"/>
<path d="M33.25 55C33.112 55 33 54.888 33 54.75C33 53.527 33.995 52.532 35.218 52.532C35.252 52.541 35.955 52.531 36.462 52.668C36.595 52.704 36.674 52.841 36.638 52.974C36.602 53.108 36.465 53.187 36.332 53.15C35.888 53.03 35.232 53.03 35.219 53.032C34.271 53.032 33.5 53.803 33.5 54.75C33.5 54.888 33.388 55 33.25 55ZM26.5 59C26.2239 59 26 59.2238 26 59.5C26 59.7761 26.2239 60 26.5 60C26.7761 60 27 59.7761 27 59.5C27 59.2238 26.7761 59 26.5 59Z" fill="#472B29"/>
<path d="M35 60H31.5C31.224 60 31 59.776 31 59.5C31 59.224 31.224 59 31.5 59H35C36.654 59 38 57.654 38 56C38 54.504 36.875 53.232 35.382 53.041C35.248 53.023 35.127 52.953 35.046 52.845C34.965 52.737 34.931 52.601 34.952 52.468C34.975 52.314 35 52.16 35 52C35 50.346 33.654 49 32 49C31.15 49 30.362 49.355 29.781 50C29.656 50.139 29.46 50.198 29.281 50.148C29.099 50.099 28.96 49.953 28.921 49.769C28.58 48.165 27.141 47 25.5 47C23.57 47 22 48.57 22 50.5C22 50.643 22.021 50.78 22.041 50.918C22.07 51.121 21.978 51.356 21.799 51.458C21.62 51.56 21.403 51.576 21.243 51.448C20.878 51.155 20.449 51 20 51C19.034 51 18.208 51.691 18.037 52.644C17.989 52.911 17.741 53.09 17.468 53.049C17.314 53.025 17.16 53 17 53C15.346 53 14 54.346 14 56C14 57.654 15.346 59 17 59H24.5C24.776 59 25 59.224 25 59.5C25 59.776 24.776 60 24.5 60H17C14.794 60 13 58.206 13 56C13 53.794 14.794 52 17 52C17.059 52 17.116 52.002 17.174 52.006C17.588 50.82 18.711 50 20 50C20.349 50 20.689 50.061 21.011 50.18C21.176 47.847 23.126 46 25.5 46C27.331 46 28.966 47.127 29.653 48.774C30.333 48.276 31.155 48 32 48C34.206 48 36 49.794 36 52C36 52.048 35.999 52.095 35.996 52.142C37.739 52.59 39 54.169 39 56C39 58.206 37.206 60 35 60Z" fill="#472B29"/>
<path d="M29.5 59C29.341 59 28.659 59 28.5 59C28.224 59 28 59.224 28 59.5C28 59.776 28.224 60 28.5 60C28.659 60 29.341 60 29.5 60C29.776 60 30 59.776 30 59.5C30 59.224 29.776 59 29.5 59Z" fill="#472B29"/>
<path d="M49.8 25H43.5C40.462 25 38 27.462 38 30.5V38.879L37.18 38.059C37.141 38.02 37.089 38 37.038 38C36.987 38 36.935 38.02 36.897 38.059L35.059 39.897C35.02 39.936 35 39.987 35 40.038C35 40.089 35.02 40.14 35.059 40.179L39.359 44.479C39.437 44.557 39.564 44.557 39.642 44.479L43.942 40.179C44.02 40.101 44.02 39.974 43.942 39.896L42.104 38.058C42.026 37.98 41.899 37.98 41.821 38.058L41 38.879V30.5C41 29.119 42.119 28 43.5 28H49.8C49.91 28 50 27.91 50 27.8V25.2C50 25.09 49.91 25 49.8 25Z" fill="#FDFCEE"/>
<path d="M49.5 25.5V27.5H43.5C41.846 27.5 40.5 28.846 40.5 30.5V38.879V40.086L41.354 39.232L41.962 38.624L43.376 40.038L39.5 43.914L35.624 40.038L37.038 38.624L37.646 39.232L38.5 40.086V38.879V30.5C38.5 27.743 40.743 25.5 43.5 25.5H49.5ZM49.8 25H43.5C40.462 25 38 27.462 38 30.5V38.879L37.18 38.059C37.141 38.02 37.089 38 37.038 38C36.987 38 36.935 38.02 36.897 38.059L35.059 39.897C35.02 39.936 35 39.987 35 40.038C35 40.089 35.02 40.14 35.059 40.179L39.359 44.479C39.398 44.518 39.449 44.538 39.5 44.538C39.551 44.538 39.602 44.518 39.641 44.479L43.941 40.179C44.019 40.101 44.019 39.974 43.941 39.896L42.103 38.058C42.064 38.02 42.013 38 41.962 38C41.911 38 41.86 38.02 41.821 38.059L41 38.879V30.5C41 29.119 42.119 28 43.5 28H49.8C49.91 28 50 27.91 50 27.8V25.2C50 25.09 49.91 25 49.8 25Z" fill="#472B29"/>
<path d="M44.2 47H50.5C53.538 47 56 44.538 56 41.5V33.121L56.82 33.941C56.859 33.98 56.911 34 56.962 34C57.013 34 57.065 33.98 57.103 33.941L58.941 32.103C58.98 32.064 59 32.013 59 31.962C59 31.911 58.98 31.86 58.941 31.821L54.641 27.521C54.563 27.443 54.436 27.443 54.358 27.521L50.058 31.821C49.98 31.899 49.98 32.026 50.058 32.104L51.896 33.942C51.974 34.02 52.101 34.02 52.179 33.942L52.999 33.122V41.5C52.999 42.881 51.88 44 50.499 44H44.199C44.089 44 43.999 44.09 43.999 44.2V46.8C44 46.91 44.09 47 44.2 47Z" fill="#FDFCEE"/>
<path d="M54.5 28.086L58.376 31.962L56.962 33.376L56.354 32.768L55.5 31.914V33.121V41.5C55.5 44.257 53.257 46.5 50.5 46.5H44.5V44.5H50.5C52.154 44.5 53.5 43.154 53.5 41.5V33.121V31.914L52.646 32.768L52.038 33.376L50.624 31.962L54.5 28.086ZM54.5 27.462C54.449 27.462 54.398 27.482 54.359 27.521L50.059 31.821C49.981 31.899 49.981 32.026 50.059 32.104L51.897 33.942C51.936 33.98 51.987 34 52.038 34C52.089 34 52.14 33.98 52.179 33.941L52.999 33.121V41.5C52.999 42.881 51.88 44 50.499 44H44.199C44.089 44 43.999 44.09 43.999 44.2V46.8C43.999 46.91 44.089 47 44.199 47H50.499C53.537 47 55.999 44.538 55.999 41.5V33.121L56.819 33.941C56.859 33.98 56.911 34 56.962 34C57.013 34 57.065 33.98 57.103 33.941L58.941 32.103C58.98 32.064 59 32.013 59 31.962C59 31.911 58.98 31.86 58.941 31.821L54.641 27.521C54.602 27.481 54.551 27.462 54.5 27.462Z" fill="#472B29"/>
</svg>
